<?xml version="1.0" encoding="UTF-8"?>
<svg width="36px" height="36px" viewBox="0 0 36 36" version="1.1" xmlns="http://www.w3.org/2000/svg" xmlns:xlink="http://www.w3.org/1999/xlink">
    <!-- Generator: Sketch 64 (93537) - https://sketch.com -->
    <title>黑白</title>
    <desc>Created with Sketch.</desc>
    <g id="黑白" stroke="none" stroke-width="1" fill="none" fill-rule="evenodd">
        <path d="M18,0 C22.9710671,0 27.471476,2.01512752 30.7289136,5.27306956 L24.3479234,11.6529381 C22.6163065,8.56360801 19.6596924,6.25356716 16.1360451,5.3807795 L16.1360451,5.3807795 L16.2015478,5.51188764 C16.7131052,6.56609579 17,7.74954396 17,9 C17,11.2928095 16.0354567,13.3603378 14.4900008,14.8189542 C14.8194265,13.9419272 15,12.9920512 15,12 C15,11.5332334 14.9600253,11.0758035 14.8833126,10.6309468 L14.8833126,10.6309468 L14.724434,10.6991547 C12.2507249,11.8107123 10.4441488,14.1425611 10.0711724,16.9282341 L10.000014,16.9381045 L10,18 L10,18 L10.0038068,18.2491793 C10.0045346,18.2729657 10.0053662,18.2967259 10.0063011,18.3204595 C10.0073889,18.3476009 10.0085968,18.3746808 10.0099402,18.4017256 C10.0200183,18.6061669 10.0378176,18.8087276 10.0630192,19.0089841 L10.0666445,19.0334796 L10.0666445,19.0334796 L10.0725675,19.082134 C10.6008097,22.9886019 13.94873,26 18,26 C20.209139,26 22.209139,25.1045695 23.6568542,23.6568542 L30.7279221,30.7279221 C27.4705627,33.9852814 22.9705627,36 18,36 C8.0588745,36 0,27.9411255 0,18 C0,8.0588745 8.0588745,0 18,0 Z" id="形状结合" fill="#FFFFFF"></path>
    </g>
</svg>